<svg width="1097" height="725" viewBox="0 0 1097 725" fill="none" xmlns="http://www.w3.org/2000/svg">
<path d="M661.136 351.094C661.136 388.584 661.136 426.073 661.136 463.563C661.136 465.037 663.558 465.142 663.558 463.563C663.558 426.073 663.558 388.584 663.558 351.094C663.558 349.515 661.136 349.515 661.136 351.094Z" fill="#E8E8E8"/>
<path d="M663.031 353.095C726.742 352.358 790.348 351.516 854.059 350.778C855.533 350.778 855.638 348.356 854.059 348.356C790.348 349.094 726.742 349.936 663.031 350.673C661.557 350.673 661.557 353.095 663.031 353.095Z" fill="#E8E8E8"/>
<path d="M662.715 464.932C678.406 464.932 694.097 464.932 709.682 464.932C711.157 464.932 711.262 462.51 709.682 462.51C693.992 462.51 678.301 462.51 662.715 462.51C661.241 462.615 661.241 464.932 662.715 464.932Z" fill="#E8E8E8"/>
<path d="M709.788 414.068C711.473 431.023 712.736 447.977 713.263 465.037C713.684 479.78 713.79 494.312 715.264 508.95C716.106 517.585 716.527 526.22 716.527 534.856C716.527 539.7 717.159 544.649 718.212 549.388C719.476 554.548 721.161 561.498 725.689 564.868C729.796 568.027 735.377 567.922 740.222 566.448C741.696 566.027 741.064 563.71 739.59 564.131C731.586 566.553 725.689 563.604 722.741 556.022C720.424 550.02 719.055 543.28 718.844 536.751C718.739 531.065 718.95 525.378 718.634 519.691C718.002 511.372 716.949 503.158 716.317 494.839C715.474 482.939 715.896 470.934 715.474 458.929C714.843 443.87 713.684 428.916 712.21 413.858C711.999 412.489 709.683 412.489 709.788 414.068Z" fill="#E8E8E8"/>
<path d="M711.894 417.649C712.42 412.91 713.895 409.119 718.949 407.539C722.425 406.486 726.11 406.907 729.691 407.223C731.165 407.329 731.165 405.012 729.691 404.801C724.741 404.275 719.265 403.853 714.842 406.697C710.946 409.224 709.998 413.12 709.577 417.438C709.366 419.228 711.683 419.228 711.894 417.649Z" fill="#E8E8E8"/>
<path d="M748.33 405.538C742.854 403.221 733.482 399.852 728.954 405.854C726.11 409.645 726.637 415.964 726.532 420.492C726.216 434.603 727.269 448.714 728.322 462.72C730.533 491.469 734.43 520.007 736.325 548.756C736.536 552.863 736.009 557.602 736.957 561.604C739.379 570.765 750.331 567.501 756.544 564.868C757.913 564.342 757.281 562.025 755.912 562.551C752.543 563.92 746.329 566.869 742.644 564.973C738.853 562.973 738.958 559.392 738.958 555.812C738.958 552.442 738.747 549.072 738.431 545.702C737.589 534.75 736.431 523.798 735.377 512.846C732.745 486.204 729.691 459.561 728.954 432.813C728.848 427.232 728.743 421.756 729.059 416.174C729.27 413.015 729.164 409.329 731.481 406.907C735.588 402.695 743.065 405.854 747.698 407.75C749.067 408.382 749.699 406.17 748.33 405.538Z" fill="#E8E8E8"/>
<path d="M761.494 563.394C755.28 564.658 756.123 551.178 755.702 548.124C755.07 543.701 754.333 539.278 753.596 534.961C752.227 526.747 752.226 518.533 751.805 510.214C751.384 500.104 750.015 489.995 749.804 479.885C749.489 468.407 750.015 457.034 748.962 445.66C748.33 437.552 747.804 429.338 747.382 421.124C746.961 413.436 749.804 399.852 760.441 404.38C761.81 405.012 763.073 402.906 761.599 402.379C750.542 397.64 745.487 408.276 744.96 417.859C744.539 425.336 745.803 433.234 746.224 440.816C746.54 445.976 747.172 451.136 747.172 456.296C747.277 468.723 746.961 481.254 748.014 493.68C748.857 504.422 748.962 515.268 749.91 525.904C750.752 535.698 753.385 545.281 753.911 555.18C754.227 560.129 755.386 567.08 762.02 565.816C763.6 565.289 762.968 563.078 761.494 563.394Z" fill="#E8E8E8"/>
<path d="M760.862 404.591C767.496 401.853 770.339 409.329 770.655 414.489C770.761 416.069 770.971 418.596 769.392 419.649C768.549 420.176 766.864 419.755 765.916 420.176C761.599 421.861 762.863 426.81 762.757 430.707C762.441 447.451 762.336 464.194 762.336 480.938C762.441 497.682 762.652 514.426 763.073 531.17C763.179 535.382 761.915 541.806 765.495 545.07C768.444 547.703 771.392 549.072 771.708 553.6C772.024 559.498 767.075 563.183 761.599 563.078C760.125 563.078 760.125 565.395 761.599 565.5C767.18 565.605 772.656 562.236 773.92 556.549C774.446 554.127 774.025 551.6 772.972 549.388C771.708 546.65 769.813 546.018 767.812 544.017C764.232 540.437 765.39 531.907 765.285 527.274C765.179 521.692 765.074 516.111 764.969 510.53C764.758 500.104 764.653 489.574 764.653 479.148C764.653 468.723 764.653 458.192 764.758 447.767C764.863 442.185 764.863 436.604 764.969 431.023C764.969 429.232 764.548 426.389 765.074 424.704C766.127 421.65 767.707 423.019 769.813 422.177C774.446 420.387 773.288 413.647 772.235 409.751C770.761 404.485 765.706 400.273 760.125 402.59C758.861 402.906 759.493 405.222 760.862 404.591Z" fill="#E8E8E8"/>
<path d="M853.848 350.673C853.848 383.213 853.848 415.753 853.848 448.293C853.848 449.767 856.27 449.873 856.27 448.293C856.27 415.753 856.27 383.213 856.27 350.673C856.27 349.199 853.848 349.199 853.848 350.673Z" fill="#E8E8E8"/>
<path d="M763.6 465.563C793.928 465.563 824.362 465.563 854.691 465.563C856.165 465.563 856.27 463.141 854.691 463.141C824.362 463.141 793.928 463.141 763.6 463.141C762.02 463.247 762.02 465.563 763.6 465.563Z" fill="#E8E8E8"/>
<path d="M853.848 447.029C853.848 452.716 853.848 458.297 853.848 463.984C853.848 465.458 856.27 465.563 856.27 463.984C856.27 458.297 856.27 452.716 856.27 447.029C856.27 445.45 853.848 445.45 853.848 447.029Z" fill="#E8E8E8"/>
<path d="M781.818 359.414C781.818 367.312 781.818 375.105 781.818 383.003C781.818 384.477 784.24 384.582 784.24 383.003C784.24 375.105 784.24 367.312 784.24 359.414C784.135 357.834 781.818 357.834 781.818 359.414Z" fill="#E8E8E8"/>
<path d="M783.397 385.319C800.562 385.319 817.728 385.319 834.893 385.319C836.367 385.319 836.472 382.897 834.893 382.897C817.728 382.897 800.562 382.897 783.397 382.897C781.818 383.002 781.818 385.319 783.397 385.319Z" fill="#E8E8E8"/>
<path d="M782.555 360.572C800.141 360.572 817.728 360.572 835.314 360.572C836.788 360.572 836.894 358.15 835.314 358.15C817.728 358.15 800.141 358.15 782.555 358.15C780.975 358.15 780.975 360.572 782.555 360.572Z" fill="#E8E8E8"/>
<path d="M835.314 359.73C835.314 367.417 835.314 375.21 835.314 382.897C835.314 384.372 837.736 384.477 837.736 382.897C837.736 375.21 837.736 367.417 837.736 359.73C837.736 358.255 835.314 358.255 835.314 359.73Z" fill="#E8E8E8"/>
<path d="M788.031 367.944C793.086 367.944 798.14 367.944 803.195 367.944C804.669 367.944 804.775 365.521 803.195 365.521C798.14 365.521 793.086 365.521 788.031 365.521C786.451 365.627 786.451 367.944 788.031 367.944Z" fill="#E8E8E8"/>
<path d="M814.147 367.206C818.254 367.206 822.256 367.206 826.363 367.206C827.837 367.206 827.942 364.784 826.363 364.784C822.256 364.784 818.254 364.784 814.147 364.784C812.673 364.784 812.673 367.206 814.147 367.206Z" fill="#E8E8E8"/>
<path d="M803.09 446.819C798.878 445.976 799.509 440.184 801.826 437.762C804.354 435.13 808.566 435.34 811.199 437.762C813.726 440.184 813.515 444.186 811.093 446.608C808.566 449.241 803.406 449.135 801.826 445.344C801.194 443.975 798.983 444.607 799.51 445.976C801.51 450.61 807.408 452.189 811.515 449.346C815.832 446.292 816.675 439.763 812.778 436.077C808.987 432.392 802.563 432.602 799.404 436.92C796.561 440.816 796.877 447.977 802.458 449.136C803.932 449.451 804.564 447.135 803.09 446.819Z" fill="#E8E8E8"/>
<path d="M828.469 447.029C826.258 444.713 823.625 441.132 825.626 437.868C827.416 434.814 832.365 435.445 834.893 437.13C837.736 439.026 838.579 442.922 836.262 445.555C833.84 448.504 829.627 447.977 827.205 445.344C826.152 444.186 824.467 445.871 825.52 447.029C828.574 450.399 834.156 451.031 837.525 447.661C840.895 444.291 840.685 438.815 837.104 435.761C833.84 433.023 827.627 432.181 824.467 435.445C820.466 439.552 823.52 445.239 826.784 448.609C827.837 449.873 829.522 448.188 828.469 447.029Z" fill="#E8E8E8"/>
<path d="M669.982 360.993C669.982 387.004 669.982 413.12 669.982 439.131C669.982 440.606 672.404 440.711 672.404 439.131C672.404 413.12 672.404 387.004 672.404 360.993C672.404 359.519 669.982 359.519 669.982 360.993Z" fill="#E8E8E8"/>
<path d="M671.245 362.152C691.359 362.152 711.473 362.152 731.586 362.152C733.061 362.152 733.166 359.73 731.586 359.73C711.473 359.73 691.359 359.73 671.245 359.73C669.666 359.835 669.666 362.152 671.245 362.152Z" fill="#E8E8E8"/>
<path d="M681.565 370.26C681.46 369.944 681.671 369.418 681.987 369.207C682.408 368.891 682.934 369.102 683.25 369.523C683.882 370.471 682.513 370.998 681.776 370.471C680.512 369.629 679.354 371.629 680.618 372.472C681.881 373.314 683.672 373.104 684.83 372.156C686.094 370.997 686.094 369.207 685.146 367.838C684.093 366.575 682.303 366.153 680.934 367.101C679.565 368.049 679.038 369.839 679.775 371.313C679.986 371.945 680.934 372.051 681.355 371.735C681.776 371.524 681.881 370.892 681.565 370.26Z" fill="#E8E8E8"/>
<path d="M566.886 258.74C566.886 263.9 566.886 269.06 566.886 274.22C566.886 275.694 569.308 275.8 569.308 274.22C569.308 269.06 569.308 263.9 569.308 258.74C569.202 257.266 566.886 257.266 566.886 258.74Z" fill="#E8E8E8"/>
<path d="M568.887 259.161C654.817 259.161 740.748 259.161 826.679 259.161C828.153 259.161 828.258 256.739 826.679 256.739C740.748 256.739 654.817 256.739 568.887 256.739C567.412 256.739 567.412 259.161 568.887 259.161Z" fill="#E8E8E8"/>
<path d="M570.571 276.221C655.449 276.221 740.222 276.221 825.099 276.221C826.574 276.221 826.679 273.799 825.099 273.799C740.222 273.799 655.449 273.799 570.571 273.799C568.992 273.799 568.992 276.221 570.571 276.221Z" fill="#E8E8E8"/>
<path d="M825.52 259.582C825.52 264.427 825.52 269.376 825.52 274.22C825.52 275.694 827.942 275.8 827.942 274.22C827.942 269.376 827.942 264.427 827.942 259.582C827.942 258.108 825.52 258.108 825.52 259.582Z" fill="#E8E8E8"/>
<path d="M570.782 161.225C570.782 165.754 570.782 170.387 570.782 174.915C570.782 176.39 573.204 176.495 573.204 174.915C573.204 170.387 573.204 165.754 573.204 161.225C573.099 159.751 570.782 159.751 570.782 161.225Z" fill="#E8E8E8"/>
<path d="M573.309 163.121C656.923 163.121 740.643 163.121 824.257 163.121C825.731 163.121 825.836 160.699 824.257 160.699C740.643 160.699 656.923 160.699 573.309 160.699C571.835 160.699 571.835 163.121 573.309 163.121Z" fill="#E8E8E8"/>
<path d="M572.678 178.18C655.66 178.18 738.642 178.18 821.519 178.18C822.993 178.18 823.098 175.758 821.519 175.758C738.537 175.758 655.554 175.758 572.678 175.758C571.098 175.758 571.098 178.18 572.678 178.18Z" fill="#E8E8E8"/>
<path d="M823.099 162.595C823.099 167.123 823.099 171.756 823.099 176.284C823.099 177.759 825.521 177.864 825.521 176.284C825.521 171.756 825.521 167.123 825.521 162.595C825.521 161.12 823.099 161.015 823.099 162.595Z" fill="#E8E8E8"/>
<path d="M599.952 160.172C599.952 155.855 599.952 151.432 600.058 147.114C599.636 147.535 599.215 147.957 598.899 148.273C651.132 144.587 703.68 145.113 755.807 149.957C755.386 149.536 754.965 149.115 754.649 148.799C755.175 153.117 755.807 157.434 756.334 161.752C756.544 163.226 758.861 163.226 758.756 161.752C758.229 157.434 757.597 153.117 757.071 148.799C756.965 148.167 756.65 147.641 755.912 147.641C703.785 142.797 651.237 142.27 599.005 145.956C598.373 145.956 597.846 146.482 597.846 147.114C597.846 151.432 597.846 155.855 597.741 160.172C597.636 161.752 599.952 161.752 599.952 160.172Z" fill="#E8E8E8"/>
<path d="M647.762 144.376C648.499 142.375 648.078 140.796 648.394 138.9C649.342 134.056 653.449 133.74 657.661 133.53C663.874 133.319 670.087 133.108 676.3 132.898C689.464 132.477 702.522 132.055 715.685 131.634C728.322 131.213 741.064 130.581 753.701 130.476C760.23 130.37 766.864 130.581 773.393 131.634C778.343 132.477 779.607 135.425 780.133 140.059C780.554 143.007 780.765 145.956 780.976 149.01C781.397 148.589 781.818 148.167 782.134 147.851C772.867 147.957 763.705 147.43 754.544 146.482C753.069 146.272 753.069 148.694 754.544 148.905C763.705 149.852 772.867 150.379 782.134 150.274C782.766 150.274 783.398 149.747 783.292 149.115C782.976 144.482 783.398 136.689 780.765 132.582C778.238 128.791 771.709 129.107 767.707 128.686C751.174 127.211 734.219 128.791 717.686 129.317C701.047 129.844 684.514 130.476 667.876 131.002C663.769 131.108 659.556 131.318 655.449 131.424C653.343 131.529 650.816 131.213 648.815 132.161C644.392 134.372 646.709 140.164 645.34 143.85C645.024 145.113 647.341 145.745 647.762 144.376Z" fill="#E8E8E8"/>
<path d="M711.262 131.95C710.314 132.266 710.209 132.792 710.946 133.424C711.051 133.635 711.262 133.951 711.367 134.161C711.894 135.215 712.315 136.373 712.526 137.531C713.052 139.743 713.158 141.954 712.842 144.271C712.631 145.745 714.948 146.377 715.158 144.903C715.79 140.585 715.264 136.373 713.263 132.582C712.736 131.529 711.999 130.054 710.63 130.16C709.577 130.16 708.945 131.002 708.945 131.95C708.945 133.424 711.367 133.424 711.262 131.95Z" fill="#E8E8E8"/>
<path d="M732.218 129.739C735.377 135.004 735.904 141.006 733.692 146.798C733.166 148.273 735.483 148.799 736.009 147.43C738.431 141.112 737.799 134.372 734.324 128.58C733.482 127.211 731.481 128.475 732.218 129.739Z" fill="#E8E8E8"/>
<path d="M703.891 130.054C704.838 128.264 702.522 122.051 702.206 119.84C701.679 116.47 701.363 113.1 701.258 109.73C701.153 107.413 700.731 107.308 702.837 106.044C703.891 105.518 705.576 105.413 706.734 105.202C710.525 104.465 714.421 103.833 718.318 103.622C722.741 103.306 734.64 101.411 736.957 106.36C738.115 108.888 737.694 113.627 737.589 116.365C737.484 120.156 737.168 123.947 736.536 127.738C736.325 129.212 738.642 129.844 738.853 128.37C739.695 123.104 740.116 117.839 739.906 112.468C739.8 109.52 740.011 105.202 737.589 102.991C735.062 100.674 730.428 101.095 727.269 100.99C721.477 100.884 715.685 101.306 709.998 102.253C707.155 102.675 700.626 102.675 699.046 105.518C697.362 108.361 699.257 115.417 699.573 118.365C699.889 121.314 699.889 128.896 702.311 130.686C703.68 131.739 705.049 131.318 705.681 129.739C705.891 129.317 705.891 128.685 705.47 128.264C704.101 127.001 702.627 127.106 701.784 128.791C701.153 130.16 703.153 131.423 703.891 130.054Z" fill="#E8E8E8"/>
<path d="M706.734 102.675C705.786 98.7783 703.048 95.619 701.574 91.828C700.942 90.2484 700.415 88.7741 699.994 87.0891C699.889 86.5626 699.784 85.9308 699.678 85.4042C698.52 83.0875 699.257 81.5079 701.679 80.7707C702.627 81.8238 704.101 80.4548 703.575 79.2964C700.521 73.3992 698.941 66.9755 699.362 60.2358C699.573 56.3394 699.362 56.4447 702.943 54.7598C706.313 53.0749 707.576 53.6014 710.209 56.3394C712.42 58.5509 713.789 61.8154 714.843 64.6587C719.055 76.2425 720.74 88.9847 721.056 101.2C721.056 102.675 723.478 102.78 723.478 101.2C723.162 91.1961 721.793 81.2973 719.371 71.5037C717.581 64.6587 715.369 55.9182 708.84 52.0218C704.101 49.2839 699.047 50.7582 697.678 56.1288C695.571 64.1322 697.993 73.2939 701.679 80.4548C702.311 79.9283 702.943 79.507 703.575 78.9805C699.784 74.8735 696.94 80.5601 697.256 84.0352C697.888 90.3537 701.469 100.358 707.155 103.938C707.471 104.149 707.998 104.149 708.314 103.938C708.419 103.833 708.629 103.728 708.735 103.622C709.156 103.306 709.367 102.885 709.261 102.253C709.261 102.148 709.156 101.937 709.156 101.832C708.629 100.568 706.418 101.2 706.734 102.675Z" fill="#E8E8E8"/>
<path d="M720.108 77.5061C719.265 74.2416 719.897 71.0824 720.634 67.8179C721.371 64.764 725.057 56.6553 729.269 61.9207C730.112 62.9737 731.481 61.8154 731.27 60.7623C735.272 59.8145 737.273 60.657 737.062 63.395C737.167 64.0268 737.167 64.764 737.167 65.5011C737.167 67.0807 737.062 68.6603 736.957 70.2399C736.641 74.1363 736.22 77.9274 735.588 81.7184C734.535 88.2475 732.85 94.6712 730.849 100.99C730.428 102.464 732.639 103.096 733.166 101.622C735.377 94.6712 737.167 87.6157 738.221 80.3494C739.063 74.6629 740.432 67.9232 739.379 62.1313C738.852 59.0774 736.641 55.4969 732.955 55.8129C730.007 56.0235 728.532 58.6562 728.953 61.3941C729.585 60.9729 730.322 60.657 730.954 60.2358C728.322 56.7606 723.372 57.7084 720.845 60.8676C717.475 65.0799 716.633 73.0832 717.791 78.0327C718.107 79.6123 720.424 78.9804 720.108 77.5061Z" fill="#E8E8E8"/>
<path d="M634.493 146.798C636.073 148.062 636.283 151.327 636.599 153.222C637.02 155.644 637.231 158.066 637.231 160.594C637.231 162.068 639.653 162.173 639.653 160.594C639.653 157.54 639.337 154.486 638.705 151.537C638.284 149.431 637.863 146.588 636.178 145.113C635.02 144.166 633.335 145.851 634.493 146.798Z" fill="#E8E8E8"/>
<path d="M662.4 145.324C664.506 150.274 665.138 155.539 664.19 160.804C663.874 162.279 666.191 162.91 666.507 161.436C667.56 155.75 666.928 150.063 664.716 144.692C664.19 143.323 661.873 143.955 662.4 145.324Z" fill="#E8E8E8"/>
<path d="M0 2.00087C0 84.0352 0 166.175 0 248.209C0 271.377 0 294.544 0 317.607C0 319.081 2.42209 319.186 2.42209 317.607C2.42209 235.572 2.42209 153.433 2.42209 71.3983C2.42209 48.2307 2.42209 25.0632 2.42209 2.00087C2.42209 0.42126 0 0.42126 0 2.00087Z" fill="#E8E8E8"/>
<path d="M2.73793 2.42207C81.0865 2.42207 159.435 2.42207 237.889 2.42207C260.32 2.42207 282.645 2.42207 305.075 2.42207C306.549 2.42207 306.655 0 305.075 0C226.726 0 148.378 0 69.924 0C47.4935 0 25.1684 0 2.73793 0C1.26363 0.105307 1.26363 2.42207 2.73793 2.42207Z" fill="#E8E8E8"/>
<path d="M303.812 2.73793C304.127 85.2988 304.233 167.86 304.022 250.421C303.917 273.694 303.917 296.861 303.812 320.134C303.812 321.608 306.128 321.608 306.234 320.134C306.549 237.678 306.655 155.223 306.444 72.7672C306.339 49.389 306.339 26.1161 306.234 2.73793C306.234 1.15832 303.812 1.15832 303.812 2.73793Z" fill="#E8E8E8"/>
<path d="M2.00087 320.345C80.876 320.345 159.856 320.345 238.732 320.345C261.057 320.345 283.382 320.345 305.812 320.345C307.287 320.345 307.392 317.923 305.812 317.923C226.937 317.923 147.957 317.923 69.0816 317.923C46.7565 317.923 24.4313 317.923 2.00087 317.923C0.42126 317.923 0.42126 320.345 2.00087 320.345Z" fill="#E8E8E8"/>
<path d="M7.79272 13.7953C7.79272 88.5635 7.79272 163.226 7.79272 237.994C7.79272 259.372 7.79272 280.749 7.79272 302.232C7.79272 303.706 10.2148 303.812 10.2148 302.232C10.2148 227.464 10.2148 152.801 10.2148 78.0327C10.2148 56.6553 10.2148 35.278 10.2148 13.7953C10.1095 12.2157 7.79272 12.2157 7.79272 13.7953Z" fill="#E8E8E8"/>
<path d="M10.4254 15.6907C83.5087 15.6907 156.592 15.6907 229.78 15.6907C250.421 15.6907 271.061 15.6907 291.701 15.6907C293.175 15.6907 293.281 13.2687 291.701 13.2687C218.618 13.2687 145.535 13.2687 72.3461 13.2687C51.7059 13.2687 31.0657 13.2687 10.4254 13.2687C8.84582 13.2687 8.84582 15.6907 10.4254 15.6907Z" fill="#E8E8E8"/>
<path d="M9.68825 305.496C80.1388 305.496 150.484 305.496 220.935 305.496C240.943 305.496 260.846 305.496 280.854 305.496C282.329 305.496 282.434 303.074 280.854 303.074C210.404 303.074 140.059 303.074 69.6081 303.074C49.5997 303.074 29.6966 303.074 9.68825 303.074C8.10864 303.074 8.10864 305.496 9.68825 305.496Z" fill="#E8E8E8"/>
<path d="M290.437 16.6386C290.437 90.8802 290.437 165.017 290.437 239.258C290.437 260.214 290.437 281.276 290.437 302.232C290.437 303.706 292.859 303.812 292.859 302.232C292.859 227.99 292.859 153.854 292.859 79.6123C292.859 58.6562 292.859 37.5947 292.859 16.6386C292.754 15.059 290.437 15.059 290.437 16.6386Z" fill="#E8E8E8"/>
<path d="M188.605 16.4279C145.219 70.7665 101.832 125 58.5509 179.338C57.6031 180.497 59.288 182.182 60.2358 181.023C103.622 126.685 147.009 72.4514 190.29 18.1128C191.238 16.8491 189.553 15.1642 188.605 16.4279Z" fill="#E8E8E8"/>
<path d="M239.363 19.4818C183.445 86.4572 127.632 153.433 71.7143 220.408C55.8129 239.469 39.8062 258.635 23.9048 277.695C22.957 278.854 24.6419 280.538 25.5897 279.38C81.5079 212.405 137.321 145.429 193.239 78.4538C209.14 59.3932 225.147 40.2273 241.048 21.1667C241.996 20.0083 240.311 18.3234 239.363 19.4818Z" fill="#E8E8E8"/>
<path d="M286.436 121.735C260.636 156.276 235.151 191.027 209.983 226.095C209.14 227.358 211.141 228.517 211.984 227.253C237.047 192.186 262.531 157.434 288.437 122.893C289.384 121.735 287.278 120.577 286.436 121.735Z" fill="#E8E8E8"/>
<path d="M705.769 633.002C756.528 614.573 807.075 643.111 855.095 656.907C904.8 671.228 956.927 668.069 1007.26 658.276C1036.96 652.484 1066.13 644.586 1095.2 636.582C1097.2 636.056 1096.35 633.002 1094.35 633.528C1043.07 647.64 990.942 661.856 937.551 663.436C910.697 664.278 883.739 661.645 857.833 654.379C833.297 647.534 809.813 637.214 785.171 630.475C759.055 623.419 730.833 620.576 704.927 629.948C703.031 630.58 703.769 633.634 705.769 633.002Z" fill="#E8E8E8"/>
<path d="M77.7078 259.101C75.2858 258.996 71.3894 259.207 66.9665 260.576C65.3869 261.102 56.1198 264.051 56.2251 268.158C56.2251 269.948 58.1207 271.212 60.3321 272.686C64.6497 275.634 68.862 276.477 75.1804 277.741C80.867 278.899 85.5006 279.741 88.5545 280.268C91.5031 283.427 96.3472 287.745 103.403 290.799C105.509 291.746 115.092 295.748 127.518 294.274C130.783 293.958 133.415 293.326 135.206 292.8C132.784 298.802 129.94 306.805 127.518 316.494C125.623 324.076 122.358 337.66 122.358 355.247C122.358 381.258 129.624 401.055 133.099 409.691C136.68 418.326 140.892 428.435 150.054 439.387C156.056 446.548 169.22 462.45 191.124 467.61C193.967 468.241 200.917 469.716 214.291 468.663C224.401 467.82 247.252 464.872 278.529 448.022C294.43 439.493 316.018 427.803 335.605 404.215C351.085 385.575 374.253 348.718 362.353 334.185C360.037 331.342 356.983 330.184 354.139 329.131C343.187 325.024 329.708 327.972 305.382 342.715C292.113 350.719 290.534 353.141 252.939 380.521C244.409 386.734 232.088 395.474 214.397 398.633C203.339 400.634 198.179 398.949 195.863 398.107C183.542 393.368 178.697 380.205 175.328 370.938C168.799 353.246 170.694 337.555 171.747 330.184C173.222 318.81 176.486 309.965 181.014 297.96C186.596 282.901 188.175 283.427 191.334 272.791C194.599 261.945 198.074 249.308 193.44 236.039C191.861 231.616 189.123 223.929 181.646 220.98C176.17 218.769 170.694 220.138 168.272 220.98C166.271 213.609 164.586 205.5 163.112 196.759C160.901 183.28 160.163 170.854 160.058 160.007C157.531 158.428 153.424 156.427 148.264 155.479C141.524 154.215 135.943 155.163 130.256 156.532C115.092 160.007 105.088 162.324 92.2402 169.169C86.2377 172.433 78.1291 177.383 69.5992 184.754C70.1257 196.97 71.1787 209.923 72.653 223.507C74.022 235.828 75.707 247.833 77.7078 259.101Z" fill="white"/>
<path d="M174.275 240.778C169.325 242.252 163.954 239.093 162.691 234.038C161.217 228.036 166.903 222.56 172.379 221.507C183.752 219.295 191.018 230.984 191.861 240.778C192.598 249.939 191.229 260.154 189.334 269.105C187.227 279.004 182.594 287.955 178.698 297.117C171.747 313.545 168.904 332.184 169.852 349.981C170.589 365.356 175.222 381.363 186.596 392.315C197.758 402.951 214.186 408.427 229.034 402.74C230.93 402.003 230.087 398.949 228.192 399.686C209.131 407.058 188.596 394.948 179.856 377.783C169.852 358.195 171.642 332.816 176.907 312.176C179.751 301.119 185.227 291.22 189.228 280.689C192.809 271.212 194.072 261.102 194.81 251.098C195.441 242.568 195.441 233.09 189.965 226.035C185.648 220.559 178.592 216.978 171.642 218.347C164.797 219.716 158.479 226.14 159.532 233.406C160.479 240.778 168.272 245.622 175.328 243.621C177.118 243.2 176.275 240.146 174.275 240.778Z" fill="#161616"/>
<path d="M196.6 400.108C227.244 403.583 251.149 381.152 274.211 364.619C286.637 355.668 299.485 346.822 312.964 339.556C319.809 335.87 327.075 332.711 334.657 331.026C341.292 329.552 355.087 327.13 359.51 334.185C360.563 335.87 363.301 334.291 362.248 332.606C355.719 322.286 337.079 326.603 327.707 329.657C312.438 334.712 298.642 343.979 285.374 352.93C271.684 362.197 258.942 372.622 245.252 381.89C230.824 391.578 214.397 399.055 196.6 396.948C194.493 396.633 194.599 399.792 196.6 400.108Z" fill="#161616"/>
<path d="M82.0254 182.754C80.0245 213.819 85.9218 244.78 99.0852 273.002C99.9276 274.792 102.666 273.212 101.823 271.422C88.9756 243.726 83.289 213.187 85.2899 182.754C85.2899 180.753 82.1307 180.753 82.0254 182.754Z" fill="#161616"/>
<path d="M101.086 275.424C127.623 272.581 153.424 265.209 177.434 253.625C179.224 252.783 177.644 250.045 175.854 250.887C152.371 262.26 127.097 269.527 101.086 272.265C99.0851 272.475 99.0851 275.634 101.086 275.424Z" fill="#161616"/>
<path d="M173.116 244.042C174.169 246.886 175.328 249.729 176.381 252.572C177.118 254.468 180.172 253.625 179.435 251.73C178.381 248.886 177.223 246.043 176.17 243.2C175.433 241.41 172.379 242.147 173.116 244.042Z" fill="#161616"/>
<path d="M158.373 161.06C160.163 180.647 159.953 201.919 167.535 220.243C168.272 222.138 171.326 221.296 170.589 219.4C163.112 201.288 163.323 180.331 161.638 161.06C161.322 159.059 158.162 159.059 158.373 161.06Z" fill="#161616"/>
<path d="M86.5536 183.385C96.2419 176.33 107.51 172.328 118.988 169.064C131.73 165.483 144.683 161.587 158.057 162.113C160.058 162.219 160.058 159.059 158.057 158.954C144.473 158.533 131.204 162.429 118.146 166.01C106.351 169.274 94.8729 173.381 84.974 180.647C83.2891 181.911 84.8687 184.649 86.5536 183.385Z" fill="#161616"/>
<path d="M121.41 243.937C113.512 240.041 109.195 232.143 108.247 223.613C107.194 214.03 111.406 207.395 118.988 202.025C126.254 196.759 134.784 192.863 143.525 197.286C152.16 201.603 156.056 210.765 158.373 219.611C158.9 221.612 161.954 220.769 161.427 218.769C158.794 208.554 153.845 198.234 143.63 193.811C133.731 189.493 124.148 194.127 116.145 200.129C107.931 206.237 103.929 213.924 105.298 224.245C106.457 233.617 111.406 242.357 119.936 246.57C121.621 247.623 123.201 244.885 121.41 243.937Z" fill="#161616"/>
<path d="M117.303 244.148C122.463 250.677 131.625 250.466 139.102 249.202C147.737 247.728 156.583 244.253 160.901 236.144C161.848 234.354 159.11 232.774 158.163 234.565C154.477 241.515 147.105 244.464 139.734 245.938C132.889 247.307 124.254 248.044 119.515 241.936C118.251 240.251 116.04 242.568 117.303 244.148Z" fill="#161616"/>
<path d="M158.373 218.558C159.216 221.612 159.637 224.771 159.742 227.93C159.847 229.931 163.007 229.931 162.901 227.93C162.796 224.455 162.27 221.085 161.427 217.715C160.901 215.715 157.847 216.557 158.373 218.558Z" fill="#161616"/>
<path d="M67.4929 186.229C68.4407 207.395 70.8628 228.352 75.0751 249.097C76.1281 254.362 77.2865 259.733 78.6555 264.998C79.4979 268.368 80.1298 272.054 82.8678 274.371C87.7119 278.688 95.1887 276.793 100.665 275.003C102.56 274.371 101.718 271.317 99.8223 271.949C96.3471 273.107 92.6614 274.266 89.0809 273.634C83.4996 272.791 82.6572 267.842 81.4988 263.103C79.4979 254.889 77.813 246.57 76.3387 238.25C73.2848 221.085 71.4946 203.604 70.7574 186.229C70.6521 184.228 67.4929 184.228 67.4929 186.229Z" fill="#161616"/>
<path d="M68.9672 186.86C74.3378 186.65 79.4979 185.807 84.5527 184.122C86.4482 183.491 85.6057 180.437 83.7102 181.069C78.8661 182.648 74.0219 183.596 68.8619 183.701C66.9664 183.807 66.9663 186.966 68.9672 186.86Z" fill="#161616"/>
<path d="M70.0204 184.333C81.9201 174.961 96.1366 169.274 110.458 164.851C117.303 162.745 124.254 160.639 131.309 158.954C139.734 156.848 149.106 156.005 156.267 161.903C157.847 163.166 160.058 160.955 158.478 159.691C145.42 148.95 127.202 156.532 112.986 160.744C96.8738 165.588 81.0777 171.591 67.7037 182.122C66.124 183.385 68.4408 185.597 70.0204 184.333Z" fill="#161616"/>
<path d="M98.9798 167.589C93.7144 160.112 88.9756 152.214 86.6589 143.263C84.2368 133.996 83.9209 123.887 82.9731 114.409C82.7625 112.408 79.6033 112.408 79.8139 114.409C80.867 124.203 81.0776 134.523 83.6049 144.106C86.027 153.267 90.8711 161.481 96.2418 169.169C97.4002 170.854 100.138 169.274 98.9798 167.589Z" fill="#161616"/>
<path d="M81.0776 112.724C81.6041 112.408 81.2882 112.408 81.0776 111.882C80.867 111.355 80.7617 110.618 80.6564 110.092C80.5511 109.354 80.6564 107.459 81.8148 107.564C82.6572 107.564 82.6572 109.249 82.6572 109.881C82.6572 110.302 82.7626 110.829 82.5519 111.25C82.236 111.882 82.1307 111.46 82.3413 111.987C81.6042 110.091 78.5503 110.934 79.2874 112.829C80.3405 115.778 84.2369 115.357 85.3952 112.724C86.4483 110.302 85.9218 105.563 82.9732 104.721C79.7087 103.668 77.2865 107.038 77.3919 109.986C77.4972 112.514 78.9715 117.568 82.4467 115.673C84.4475 114.514 82.8678 111.776 81.0776 112.724Z" fill="#161616"/>
<path d="M124.675 115.252C129.624 128.415 131.204 142.315 128.887 156.216C128.571 158.217 131.625 159.059 131.941 157.058C134.258 142.526 132.889 128.099 127.729 114.409C126.992 112.619 123.938 113.356 124.675 115.252Z" fill="#161616"/>
<path d="M124.78 111.987C122.569 111.461 123.201 108.301 125.412 108.828C126.465 109.038 126.992 110.302 127.202 111.25C127.202 111.566 126.992 114.093 126.149 113.356C124.57 112.092 122.358 114.304 123.938 115.567C126.254 117.568 129.519 116.199 130.256 113.251C130.993 110.513 129.624 107.248 127.097 105.985C124.675 104.826 121.516 106.09 120.568 108.617C119.515 111.355 121.305 114.304 124.043 114.936C125.939 115.462 126.781 112.408 124.78 111.987Z" fill="#161616"/>
<path d="M77.8131 257.838C72.0212 257.206 66.2293 258.259 61.2798 261.313C58.3312 263.103 53.4871 266.789 54.5402 270.896C55.6986 275.529 64.3337 276.372 67.9142 277.319C75.0751 279.215 82.3413 280.268 89.7128 280.9C91.7136 281.111 91.7136 277.846 89.7128 277.741C80.6564 277.004 71.7053 275.424 63.0701 272.686C60.4374 271.843 56.4357 271.528 59.279 266.789C60.1215 265.314 62.6488 264.051 64.2284 263.208C68.4407 260.997 73.0743 260.47 77.8131 260.997C79.8139 261.207 79.8139 258.048 77.8131 257.838Z" fill="#161616"/>
<path d="M88.5544 280.584C94.8729 285.007 101.823 291.536 109.3 293.853C117.093 296.169 126.676 295.327 134.679 294.695C136.68 294.59 136.68 291.431 134.679 291.536C126.992 292.062 117.619 293.01 110.142 290.799C102.982 288.693 96.1366 282.058 90.1341 277.846C88.5544 276.688 86.9748 279.426 88.5544 280.584Z" fill="#161616"/>
<path d="M132.573 293.642C115.408 338.292 117.303 394.211 144.894 434.438C157.109 452.34 175.854 466.557 197.969 469.084C221.031 471.717 245.989 464.345 266.945 455.183C290.85 444.758 312.332 429.278 330.866 410.954C332.341 409.48 330.129 407.269 328.655 408.743C297.589 439.387 255.993 463.503 211.659 466.135C159.531 469.295 131.73 417.273 126.044 372.201C122.779 345.874 126.149 319.126 135.627 294.379C136.364 292.484 133.31 291.747 132.573 293.642Z" fill="#161616"/>
<path d="M115.513 239.83C109.195 233.406 106.562 223.929 108.879 215.293C112.143 203.183 124.885 193.705 138.47 195.917C154.266 198.444 159.637 214.872 160.269 223.191C160.479 225.929 161.006 233.617 155.951 238.988C154.582 240.462 153.318 241.094 151.107 242.357C146.579 244.885 140.892 248.044 133.31 247.728C122.99 247.202 116.356 240.672 115.513 239.83Z" fill="#EC615B"/>
<path opacity="0.16" d="M146.579 154.636C149.422 156.321 152.371 158.006 155.214 159.797C143.841 160.744 128.571 163.166 111.827 169.695C100.875 173.908 91.8189 178.857 84.5527 183.491C83.9209 192.968 83.9209 204.026 85.3952 216.241C87.9226 238.25 93.9251 256.153 99.6117 269.105C102.35 271.633 105.72 274.371 109.826 276.582C126.254 285.533 143.314 282.48 149.738 280.9C146.579 289.114 142.156 301.645 137.943 317.231C128.676 351.035 127.518 372.623 125.307 372.517C123.095 372.412 121.41 351.14 124.464 329.447C126.57 314.177 130.677 301.961 133.942 293.537C128.887 294.169 124.675 293.853 121.726 293.537C111.722 292.378 104.456 288.482 99.1904 285.639C94.9781 283.322 91.6083 281.005 89.2916 279.32C84.974 279.004 79.182 278.373 72.3371 277.319C60.2267 275.424 58.1206 274.055 57.3834 272.159C56.0144 268.79 58.9631 264.261 61.7011 261.945C65.9133 258.364 72.3371 257.838 78.2343 260.365C75.7069 248.992 73.3902 236.144 71.9159 222.033C70.3363 207.501 69.8097 194.127 69.915 182.122C79.2874 176.224 91.7136 169.485 106.983 164.009C122.147 158.743 135.732 156.005 146.579 154.636Z" fill="#606060"/>
<path opacity="0.11" d="M163.112 232.564C164.902 229.51 173.643 229.826 179.224 234.038C185.858 238.988 187.754 249.308 184.911 251.624C183.226 252.888 180.066 251.835 178.276 250.677C174.59 248.255 174.485 243.937 174.485 243.516C173.853 243.516 167.008 243.095 164.06 237.829C163.533 236.881 162.059 234.249 163.112 232.564Z" fill="#606060"/>
<path opacity="0.09" d="M84.1315 184.649C84.7634 193.495 86.6589 206.869 92.9773 221.823C95.5047 227.825 98.5586 235.091 103.719 241.41C119.199 260.049 146.052 260.997 155.109 260.997C140.26 264.788 125.412 268.474 110.564 272.265C131.309 273.212 156.267 277.319 163.954 293.326C171.747 309.754 154.056 323.655 149.738 358.406C149.422 361.144 142.682 421.485 175.222 443.6C196.81 458.237 225.875 449.076 246.199 442.652C302.749 424.75 337.185 382.1 353.929 356.932C352.454 365.988 349.085 380.205 340.239 395.158C327.181 417.168 309.7 428.33 292.745 439.177C268.209 454.868 247.252 460.87 242.303 462.239C225.454 466.767 211.975 470.453 196.284 467.61C161.954 461.397 142.682 429.067 138.47 422.117C114.355 381.784 123.832 335.449 128.676 311.966C130.361 303.962 132.152 297.433 133.521 292.905C129.203 293.747 121.726 294.59 112.986 292.378C100.559 289.324 92.6614 282.058 89.5022 278.688C68.4407 278.162 57.4888 275.74 56.7516 271.317C56.2251 268.263 60.4374 264.367 69.4938 259.523C72.1265 259.207 74.7592 258.891 77.2865 258.575C74.5486 234.459 71.7052 210.239 68.9672 186.123C74.022 185.597 79.0768 185.176 84.1315 184.649Z" fill="#606060"/>
<path d="M304.013 546.695C302.012 563.86 300.222 577.761 298.958 586.186C281.858 624.222 483.407 645.29 555.487 611.775C564.438 567.652 571.599 514.998 572.968 455.394C574.021 410.007 571.388 368.831 567.176 332.606C557.382 326.182 542.218 317.547 522.21 311.65C501.885 305.647 485.879 305.121 465.87 304.173C450.917 303.436 431.33 302.593 406.793 306.911C391.945 309.543 370.146 315.019 345.609 327.34C333.288 351.666 326.443 372.307 322.652 385.891C309.489 433.385 313.596 462.344 304.013 546.695Z" fill="#EC615B"/>
<path opacity="0.16" d="M490.196 305.752C492.408 311.123 495.567 319.864 497.989 330.921C506.94 371.885 494.514 393.579 489.038 441.704C483.035 494.042 495.462 497.096 486.089 533.321C478.086 564.387 434.596 613.412 423.012 627.734C507.283 627.734 517.817 624.925 555.592 612.934C556.856 606.089 558.541 596.716 560.331 585.448C562.753 570.811 567.071 544.063 569.914 516.578C573.494 481.721 573.494 454.762 573.494 434.017C573.494 406.426 572.231 372.201 568.124 332.816C563.806 330.078 557.803 326.603 550.432 322.917C542.534 319.021 531.055 313.44 515.365 309.649C508.941 308.069 500.516 306.384 490.196 305.752Z" fill="#606060"/>
<path opacity="0.13" d="M567.07 333.869C563.701 348.718 558.751 371.675 553.907 400.108C542.534 466.767 544.745 487.302 533.793 518.789C526.106 540.903 493.158 596.001 458.827 628.436C507.283 628.436 527.649 617.902 554.539 611.775C563.174 572.496 567.492 538.481 569.703 512.155C573.915 463.081 572.441 424.434 571.388 396.106C570.335 370.938 568.65 349.666 567.07 333.869Z" fill="#606060"/>
<path d="M542.534 329.025C540.323 330.289 537.585 333.448 532.214 339.661C528.739 343.663 527.054 345.664 525.685 347.665C522.315 352.719 520.841 357.774 519.156 369.568C517.471 381.152 516.628 387.05 516.418 394.632C515.997 412.85 518.735 429.172 522.42 447.496C529.476 482.247 532.635 486.881 536.637 510.048C540.007 529.636 541.165 545.748 541.586 555.962C537.901 560.28 532.635 566.809 526.843 575.234C515.891 591.24 510.31 603.667 506.73 611.038C500.411 623.78 489.565 641.472 470.188 661.796C467.45 662.217 463.132 662.533 458.183 661.27C449.864 659.058 448.705 654.425 440.175 652.213C437.121 651.371 438.49 652.319 424.906 651.687C415.323 651.265 412.48 650.634 409.636 652.74C407.004 654.635 404.898 658.426 405.845 661.796C407.004 665.798 412.269 668.746 418.377 667.693C409.952 669.8 404.055 673.169 400.369 675.697C395.841 678.856 387.101 684.858 388.364 690.65C389.101 694.02 393.208 696.653 393.84 697.074C395.946 698.443 398.053 698.97 399.316 699.18C399.422 699.812 400.369 703.708 404.266 706.131C408.478 708.763 412.901 707.394 413.533 707.184C414.48 709.079 416.271 712.028 419.535 714.134C425.432 717.82 433.752 717.398 440.807 713.081C440.702 715.187 441.018 718.136 443.019 720.031C445.967 722.874 451.233 721.927 458.288 720.031C477.138 715.082 486.616 712.554 492.092 706.131C494.409 703.393 499.042 697.074 500.306 686.333C518.103 673.275 531.793 661.27 541.165 652.634C568.334 627.677 590.659 606.615 604.876 573.549C612.142 556.594 614.564 543.01 615.196 538.271C617.197 525.213 616.881 514.261 615.196 496.043C613.406 476.771 610.457 455.078 603.718 420.748C602.875 416.641 597.399 389.05 585.184 356.616C581.919 347.875 577.075 336.186 565.596 330.394C564.017 329.973 551.485 323.865 542.534 329.025Z" fill="white"/>
<path d="M541.586 327.762C518.313 344.4 513.68 377.467 514.628 404.004C515.786 437.176 526.106 468.873 533.267 500.992C537.479 519.842 540.533 538.903 540.112 558.279C540.112 560.28 543.271 560.28 543.271 558.279C544.219 518.368 530.318 480.668 522.526 442.02C518.524 421.906 516.102 401.161 518.735 380.626C521.051 362.092 527.37 341.873 543.166 330.5C544.746 329.341 543.166 326.603 541.586 327.762Z" fill="#161616"/>
<path d="M551.485 551.329C531.371 559.754 521.683 580.92 511.363 598.717C498.41 621.148 484.931 643.262 466.818 662.007C465.449 663.481 467.661 665.693 469.03 664.218C485.563 647.159 498.41 627.15 510.31 606.615C521.157 588.081 531.056 563.229 552.222 554.278C554.223 553.54 553.381 550.486 551.485 551.329Z" fill="#161616"/>
<path d="M541.165 332.079C554.434 323.233 569.072 333.869 576.127 345.348C583.183 356.721 587.922 369.885 592.134 382.521C600.98 409.164 605.718 436.965 609.088 464.766C612.353 491.936 617.092 521.106 612.037 548.275C606.982 575.234 589.291 597.875 571.915 618.304C552.117 641.472 529.581 662.007 504.834 679.698C503.149 680.857 504.729 683.595 506.414 682.436C529.897 665.693 551.485 646.316 570.546 624.728C588.764 603.983 608.141 580.499 614.354 552.908C620.883 523.738 615.617 492.146 612.142 462.871C608.562 433.279 603.191 403.583 593.187 375.36C588.343 361.776 582.972 346.19 572.863 335.554C564.438 326.708 550.643 322.075 539.691 329.341C537.901 330.5 539.48 333.238 541.165 332.079Z" fill="#161616"/>
<path d="M417.324 665.798C414.691 665.271 409.636 664.745 408.162 662.323C408.162 659.901 408.267 657.584 408.267 655.162C409.11 654.635 409.952 654.319 410.9 654.109C412.269 653.687 413.743 653.582 415.218 653.477C421.747 652.74 430.066 651.16 436.384 653.266C441.755 655.056 446.494 658.637 451.759 660.638C457.235 662.639 462.922 663.902 468.714 664.534C470.714 664.745 470.714 661.586 468.714 661.375C463.448 660.743 458.393 659.69 453.444 657.9C448.389 656.11 444.072 653.266 439.228 651.055C431.645 647.58 421.747 649.475 413.848 650.423C409.32 650.949 403.528 652.634 403.107 658.11C402.581 665.377 410.689 667.904 416.271 668.957C418.482 669.168 419.324 666.114 417.324 665.798Z" fill="#161616"/>
<path d="M431.961 667.062C424.8 664.429 417.429 665.693 410.479 668.536C404.371 670.958 397.315 673.696 392.892 678.645C390.154 681.594 384.994 689.281 386.258 693.704C387.627 698.338 394.788 700.865 399.105 700.023C401.106 699.602 400.264 696.548 398.263 696.969C391.945 698.233 388.68 692.862 390.891 688.018C391.523 686.543 392.26 685.174 392.998 683.805C395.63 679.593 399.421 677.276 403.739 675.17C412.269 670.958 421.536 666.746 431.119 670.221C433.014 670.853 433.857 667.799 431.961 667.062Z" fill="#161616"/>
<path d="M436.595 677.171C424.59 678.961 405.319 681.067 398.895 693.283C393.524 703.498 405.74 712.765 415.007 707.921C416.797 706.973 415.218 704.235 413.427 705.183C407.53 708.237 399.211 703.498 401.001 696.442C402.16 691.598 407.53 688.65 411.742 686.649C419.746 682.858 428.802 681.489 437.437 680.12C439.438 679.909 438.596 676.855 436.595 677.171Z" fill="#161616"/>
<path d="M507.361 678.014C500.938 680.752 498.726 686.754 496.831 693.072C495.146 698.864 493.04 703.603 487.669 706.868C483.246 709.5 478.086 710.869 473.242 712.554C468.082 714.345 462.922 716.24 457.762 718.03C455.445 718.873 453.023 719.926 450.601 720.558C449.337 720.979 448.073 721.19 446.81 721.295C442.808 719.715 441.65 717.293 443.545 714.239C445.651 710.027 451.127 706.447 454.813 703.814C458.92 700.971 463.238 698.759 467.871 697.074C469.767 696.442 468.924 693.388 467.029 694.02C461.553 695.916 456.498 698.654 451.864 702.024C447.968 704.867 443.229 708.237 440.807 712.554C439.228 715.398 438.912 719.189 441.018 721.821C443.65 725.086 447.863 724.559 451.443 723.506C458.393 721.505 465.238 718.557 472.189 716.135C477.875 714.134 483.983 712.449 489.249 709.395C493.25 707.078 496.199 703.919 497.989 699.602C500.622 693.283 500.832 684.121 508.204 680.962C510.099 680.33 509.257 677.276 507.361 678.014Z" fill="#161616"/>
<path d="M448.811 690.124C440.702 691.072 432.172 692.019 424.485 694.757C419.641 696.442 411.637 700.865 411.111 706.762C410.479 712.976 419.219 715.924 424.063 716.661C431.646 717.82 439.544 715.398 445.757 711.08C447.442 709.922 445.862 707.184 444.177 708.342C439.544 711.501 434.384 713.502 428.697 713.713C423.01 713.923 409.32 709.816 417.429 702.55C425.327 695.389 438.701 694.441 448.811 693.178C450.811 693.072 450.811 689.913 448.811 690.124Z" fill="#161616"/>
<path opacity="0.09" d="M551.275 329.131C543.482 334.712 559.383 365.778 570.335 396.317C581.814 428.014 597.926 472.664 591.502 520.053C584.762 569.758 555.487 605.773 537.795 627.466C519.682 649.686 501.359 665.271 487.564 675.486C425.854 690.545 412.901 699.917 413.322 705.92C413.533 708.553 416.481 712.028 419.641 713.713C427.854 718.136 437.964 712.449 439.438 711.607C439.438 714.134 439.86 720.242 443.651 722.243C446.389 723.612 449.442 722.243 452.812 720.874C470.293 713.713 472.294 717.293 483.878 710.238C488.196 707.605 491.355 705.604 494.514 701.708C499.99 694.968 501.254 687.386 501.57 683.279C511.784 675.907 524.211 666.324 537.585 654.319C557.382 636.628 578.023 617.988 595.504 588.608C603.191 575.76 609.826 564.387 613.195 547.643C616.144 532.584 614.775 521.948 612.458 500.992C605.613 436.649 608.035 441.704 606.14 430.963C602.243 409.585 600.769 412.429 588.448 368.094C588.343 367.778 585.5 357.353 578.549 345.453C574.337 338.292 571.599 335.449 568.65 333.448C564.017 329.973 555.066 326.498 551.275 329.131Z" fill="#606060"/>
<path opacity="0.1" d="M612.142 501.308C609.825 501.097 608.14 513.629 601.822 533.005C590.87 566.493 577.075 589.871 562.542 609.564C548.01 629.151 528.423 653.793 503.254 680.646C535.373 656.636 558.751 633.574 574.337 616.514C599.611 588.924 605.929 575.655 609.509 565.44C620.251 534.269 615.828 501.624 612.142 501.308Z" fill="#606060"/>
<path opacity="0.11" d="M444.809 718.978C444.282 717.188 451.864 713.607 467.029 706.236C479.876 700.023 490.302 694.757 497.462 691.177C496.62 696.548 494.514 703.393 488.933 706.868C487.353 707.816 486.3 708.131 483.983 708.869C470.188 713.186 468.187 716.977 458.394 718.978C453.128 720.136 445.23 720.663 444.809 718.978Z" fill="#606060"/>
<path opacity="0.1" d="M414.902 703.603C420.483 704.024 428.697 704.13 438.49 702.655C455.129 700.128 467.661 694.02 467.976 694.757C468.187 695.284 462.922 697.39 454.497 702.34C444.598 708.131 444.598 709.606 439.122 711.817C436.49 712.87 423.221 718.346 417.534 712.449C415.112 709.922 414.796 706.025 414.902 703.603Z" fill="#606060"/>
<path d="M278.95 149.16C277.897 154.005 277.686 158.954 277.897 168.642C278.107 177.488 278.739 196.865 286.953 220.559C291.376 233.406 297.168 250.15 312.016 267.421C312.016 267.421 333.078 291.747 364.249 301.54C372.884 304.278 379.729 305.015 386.89 303.541C395.104 301.961 401.001 297.96 404.266 295.327C406.056 298.17 408.583 302.804 409.847 309.017C411.848 318.6 409.004 322.812 412.269 330.184C413.006 331.869 415.849 337.871 422.378 341.136C429.013 344.4 435.542 342.821 441.228 341.452C445.441 340.398 454.813 337.555 462.185 329.131C464.712 326.182 468.714 321.654 468.819 315.441C468.819 311.334 467.134 308.28 466.397 306.911C464.607 303.646 462.185 294.695 457.34 276.793C454.076 264.788 454.497 255.205 455.234 236.144C455.656 226.456 456.709 213.609 459.763 198.55C461.869 199.708 465.87 201.393 470.609 200.55C478.928 199.076 483.035 190.757 484.931 186.86C485.457 185.807 494.303 166.957 483.562 153.689C482.509 152.425 473.979 142.21 464.396 145.159C457.446 147.265 454.708 154.847 454.287 156.111C452.075 153.478 449.864 150.424 447.652 146.844C442.282 137.893 439.754 129.363 438.596 122.939C417.324 123.887 400.58 121.465 389.101 119.148C365.407 114.304 358.141 108.196 337.29 107.985C324.548 107.775 309.384 107.669 296.642 117.884C283.373 128.731 279.898 144.738 278.95 149.16Z" fill="white"/>
<path d="M276.633 158.849C274.738 199.919 285.795 242.463 315.176 272.475C328.023 285.639 343.819 296.064 361.405 301.751C370.462 304.699 380.571 307.121 389.944 304.383C399.632 301.435 408.688 294.906 417.008 289.114C435.858 275.95 452.602 258.364 457.235 235.197C457.656 233.196 454.602 232.353 454.181 234.354C450.074 254.784 436.174 270.896 419.851 283.217C412.164 289.009 403.844 294.59 395.209 298.907C385.1 303.962 375.095 302.699 364.565 299.539C329.181 288.903 302.012 259.523 289.375 225.403C281.583 204.236 278.845 181.49 279.898 158.954C279.898 156.848 276.738 156.848 276.633 158.849Z" fill="#161616"/>
<path d="M404.266 297.433C407.635 306.595 409.847 315.967 411.005 325.761C411.216 327.762 414.375 327.762 414.165 325.761C413.006 315.757 410.795 306.068 407.32 296.696C406.582 294.695 403.528 295.537 404.266 297.433Z" fill="#161616"/>
<path d="M453.971 238.04C452.917 250.571 453.549 263.208 455.866 275.635C457.13 282.058 458.815 288.377 460.921 294.59C463.238 301.33 466.713 308.174 466.292 315.441C465.554 327.446 454.602 336.186 443.966 339.556C432.488 343.242 412.164 341.241 413.638 324.708C413.849 322.707 410.689 322.707 410.479 324.708C409.426 336.923 421.009 344.295 431.961 344.611C443.966 344.821 456.814 339.03 464.185 329.447C473.663 316.915 467.345 304.278 463.132 291.009C457.551 273.95 455.655 256.047 457.13 238.145C457.235 236.039 454.076 236.039 453.971 238.04Z" fill="#161616"/>
<path d="M407.846 297.012C422.694 289.219 435.121 277.741 443.861 263.524C444.914 261.839 442.176 260.154 441.123 261.945C432.593 275.845 420.588 286.797 406.161 294.379C404.476 295.327 406.056 297.96 407.846 297.012Z" fill="#161616"/>
<path d="M408.057 298.907C417.218 294.379 424.8 287.745 431.961 280.479C438.596 273.739 444.704 266.578 448.389 257.732C449.126 255.837 446.073 254.994 445.335 256.89C441.65 265.736 435.121 272.791 428.486 279.531C421.957 286.165 414.902 292.063 406.477 296.17C404.581 297.012 406.161 299.75 408.057 298.907Z" fill="#161616"/>
<path d="M409.004 300.803C427.223 290.693 441.755 275.319 450.39 256.363C451.233 254.573 448.495 252.888 447.652 254.784C439.228 273.212 425.116 288.271 407.425 298.065C405.635 299.013 407.319 301.751 409.004 300.803Z" fill="#161616"/>
<path d="M338.027 172.223C338.238 191.073 339.712 209.818 342.24 228.457C342.345 229.405 343.819 229.931 344.556 229.405C350.875 224.771 356.456 219.506 361.616 213.609C362.985 212.029 360.668 209.818 359.405 211.397C354.455 217.084 349.085 222.244 342.977 226.772C343.714 227.088 344.556 227.404 345.294 227.72C342.766 209.396 341.397 190.862 341.187 172.328C341.187 170.117 338.027 170.117 338.027 172.223Z" fill="#161616"/>
<path d="M313.807 196.654C311.279 195.39 309.279 193.495 308.12 190.862C307.172 188.861 305.382 181.279 310.016 182.543C312.648 183.28 314.755 187.387 315.492 189.704C315.913 190.968 316.334 192.547 316.018 193.916C316.124 195.39 315.386 196.444 313.807 196.97C313.07 196.444 312.543 195.812 312.017 195.074C310.753 193.495 308.541 195.706 309.805 197.286C313.07 201.498 318.124 200.866 319.072 195.285C320.02 189.599 317.071 183.596 312.543 180.331C307.804 176.962 304.118 179.91 303.908 185.281C303.697 191.178 307.172 196.549 312.332 199.181C314.017 200.34 315.597 197.602 313.807 196.654Z" fill="#161616"/>
<path d="M306.225 183.912C307.383 189.388 310.016 194.232 313.912 198.234C315.07 199.497 316.861 198.128 316.545 196.654C315.597 191.599 310.647 187.703 311.069 182.438C310.121 182.859 309.278 183.175 308.331 183.596C311.385 187.176 313.175 191.178 314.017 195.812C314.544 195.18 315.07 194.443 315.492 193.811C312.227 193.811 310.332 190.757 308.857 188.335C307.804 186.65 305.066 188.23 306.119 189.914C308.225 193.39 310.963 196.97 315.492 196.97C316.65 196.97 317.176 195.917 316.966 194.969C316.123 189.809 313.807 185.281 310.542 181.385C309.594 180.226 307.909 181.279 307.804 182.543C307.383 188.335 312.438 192.126 313.385 197.602C314.228 197.075 315.176 196.549 316.018 196.022C312.438 192.336 310.226 188.019 309.068 183.069C308.857 181.069 305.803 181.911 306.225 183.912Z" fill="#161616"/>
<path d="M391.102 187.492C388.575 186.229 386.574 184.333 385.416 181.7C384.468 179.7 382.678 172.117 387.311 173.381C389.944 174.118 392.05 178.225 392.787 180.542C393.208 181.806 393.63 183.385 393.314 184.754C393.419 186.229 392.682 187.282 391.102 187.808C390.365 187.282 389.838 186.65 389.312 185.913C388.048 184.333 385.837 186.545 387.101 188.124C390.365 192.336 395.42 191.705 396.368 186.123C397.315 180.437 394.367 174.434 389.838 171.17C385.1 167.8 381.414 170.748 381.203 176.119C380.993 182.016 384.468 187.387 389.628 190.02C391.313 191.178 392.892 188.44 391.102 187.492Z" fill="#161616"/>
<path d="M383.415 174.645C384.573 180.121 387.206 184.965 391.102 188.967C392.261 190.23 394.051 188.861 393.735 187.387C392.787 182.332 387.838 178.436 388.259 173.171C387.311 173.592 386.469 173.908 385.521 174.329C388.575 177.909 390.365 181.911 391.208 186.545C391.734 185.913 392.261 185.176 392.682 184.544C389.417 184.544 387.522 181.49 386.048 179.068C384.994 177.383 382.256 178.962 383.309 180.647C385.416 184.122 388.154 187.703 392.682 187.703C393.84 187.703 394.367 186.65 394.156 185.702C393.314 180.542 390.997 176.014 387.732 172.117C386.785 170.959 385.1 172.012 384.994 173.276C384.573 179.068 389.628 182.859 390.576 188.335C391.418 187.808 392.366 187.282 393.208 186.755C389.628 183.069 387.417 178.752 386.258 173.802C386.048 171.907 382.994 172.749 383.415 174.645Z" fill="#161616"/>
<path d="M292.324 164.535C294.957 154.426 307.804 152.109 313.912 160.639C315.07 162.324 317.808 160.744 316.65 159.059C309.068 148.423 292.745 150.845 289.375 163.693C288.744 165.694 291.797 166.431 292.324 164.535Z" fill="#161616"/>
<path d="M370.567 150.319C376.991 136.313 393.945 143.158 401.106 152.425C402.37 154.005 405.108 152.425 403.844 150.845C399.316 144.843 392.998 139.788 385.205 139.156C378.044 138.524 370.883 142.105 367.829 148.739C366.987 150.529 369.725 152.109 370.567 150.319Z" fill="#161616"/>
<path d="M333.394 255.31C326.76 243.095 342.345 244.253 350.032 243.516C358.141 242.779 366.039 240.251 373.095 236.144C380.677 231.827 385.521 225.087 392.155 219.822C394.999 217.505 399.211 214.872 403.107 216.978C406.372 218.769 407.635 223.402 407.951 226.667C408.478 231.616 407.214 236.671 405.424 241.304C400.369 254.889 390.892 266.157 376.886 270.79C360.984 275.95 342.45 269.632 333.394 255.31C332.341 253.625 329.603 255.205 330.656 256.89C338.133 268.79 352.244 276.266 366.25 275.74C380.572 275.319 394.261 266.999 402.159 255.31C408.794 245.411 417.64 224.245 406.056 214.978C399.632 209.818 391.839 215.609 387.101 220.243C379.518 227.72 372.358 234.249 362.037 237.724C356.456 239.619 350.77 240.357 344.872 240.567C340.976 240.673 336.974 240.673 333.394 242.568C327.181 245.938 327.602 251.414 330.656 256.89C331.604 258.68 334.342 257.101 333.394 255.31Z" fill="#161616"/>
<path d="M331.604 255.521C360.668 257.416 388.47 243.2 403.318 218.031C404.371 216.241 401.633 214.662 400.58 216.452C386.258 240.778 359.615 254.257 331.604 252.362C329.603 252.256 329.603 255.415 331.604 255.521Z" fill="#161616"/>
<path d="M452.18 245.201C444.914 268.158 428.908 287.324 407.741 298.907C405.951 299.855 407.53 302.593 409.32 301.645C431.119 289.64 447.652 269.843 455.129 246.043C455.761 244.148 452.812 243.305 452.18 245.201Z" fill="#161616"/>
<path d="M455.34 158.533C456.498 150.108 465.239 146.107 473.031 148.739C480.824 151.477 485.142 159.059 486.195 166.852C487.353 174.75 485.668 183.175 481.667 190.125C477.56 197.181 468.293 203.71 460.71 196.97C459.236 195.601 456.919 197.813 458.499 199.182C465.765 205.711 475.875 202.657 481.667 195.706C488.406 187.598 491.039 175.698 489.249 165.378C487.564 155.69 481.14 146.633 470.925 144.843C462.395 143.369 453.549 148.739 452.286 157.585C452.075 159.691 455.129 160.534 455.34 158.533Z" fill="#161616"/>
<path d="M431.961 147.37C432.488 150.214 432.909 156.005 437.121 158.533C441.544 161.166 447.863 158.849 452.602 156.532C452.812 156.005 456.498 146.633 465.765 145.053C473.242 143.79 478.823 148.423 480.613 149.792C487.037 155.058 488.301 162.429 489.038 166.641C490.512 174.855 488.406 181.279 487.353 184.965C486.405 188.124 485.141 191.915 481.772 195.812C480.403 197.391 478.086 200.024 474.4 201.604C467.976 204.236 461.553 201.603 459.657 200.761C457.762 202.341 455.234 204.657 453.128 208.027C453.128 208.027 452.917 208.343 452.707 208.659C449.442 214.135 452.286 226.245 452.707 232.985C452.917 236.987 452.496 242.884 449.021 250.255C452.917 252.046 465.66 257.206 481.035 253.204C485.457 252.046 496.831 248.992 505.045 238.04C514.206 225.824 512.837 212.45 512.416 209.291C517.681 204.552 520.314 199.813 521.578 196.865C522.42 194.969 528.107 181.595 522.42 175.698C520.104 173.381 518.103 174.329 516.207 172.328C513.68 169.801 512.943 163.693 520.63 148.213C522.315 148.213 523.263 147.686 523.895 147.265C526.843 144.843 525.685 137.577 520.841 129.257C527.37 125.677 533.899 122.096 540.428 118.621C535.373 118.2 528.107 116.936 521.473 112.303C511.679 105.563 510.415 96.6121 503.886 87.5557C498.831 80.5001 489.775 71.9702 471.767 66.2836C475.874 63.4403 481.666 59.0174 487.669 52.8043C492.092 48.1708 501.78 37.0082 499.779 34.5861C498.41 33.0065 492.724 36.3764 485.668 39.0091C472.61 43.7479 461.658 43.0107 444.704 41.747C421.852 39.9568 419.43 35.9551 400.369 33.6384C387.838 32.0588 364.143 29.4261 337.817 38.6931C313.069 47.4336 298.116 62.4926 291.587 69.1269C285.584 75.2347 270.631 91.8733 262.627 117.147C258.731 129.363 255.045 142 261.574 153.373C265.681 160.428 272.105 164.219 276.422 166.22C276.001 159.27 276.107 145.791 284.321 133.048C296.536 114.198 318.335 109.881 334.341 106.722C347.084 104.194 376.148 98.5077 401.949 114.514C411.637 120.517 429.223 131.364 431.961 147.37Z" fill="#5222D0"/>
<path d="M331.814 254.994C333.183 257.627 335.921 261.734 340.555 265.525C341.608 266.367 346.557 270.264 354.139 272.37C365.934 275.529 376.254 272.265 380.256 270.685C392.471 265.841 398.579 256.995 401.106 253.099C403.844 248.992 409.004 241.199 408.689 230.352C408.478 223.823 406.372 218.769 404.897 215.82C403.844 216.873 402.37 218.453 400.58 220.348C394.472 226.877 390.576 231.827 389.312 233.406C381.625 242.568 370.041 247.728 366.355 249.308C352.454 255.415 339.502 255.626 331.814 254.994Z" fill="black"/>
<path d="M290.112 73.9712C284.952 79.1312 281.688 84.5019 279.792 87.7664C273.474 98.4025 271.263 107.67 269.683 114.304C267.787 122.623 265.787 135.155 267.05 150.635C267.366 154.321 269.578 157.269 272.632 158.217C274.738 158.849 276.528 158.322 277.37 158.006C278.002 154.005 279.582 148.002 283.478 141.684C290.323 130.416 300.222 125.151 306.014 122.202C317.808 116.199 328.234 115.252 335.184 114.62C351.085 113.356 362.985 116.726 365.618 117.463C376.886 120.728 385.1 125.993 390.576 129.468C400.79 135.892 402.265 139.156 411.742 143.263C422.273 147.897 428.697 147.581 430.803 147.37C434.068 147.16 440.07 146.633 445.651 142.21C450.706 138.209 452.602 133.049 453.339 130.732C463.238 135.049 470.504 139.578 475.348 142.947C486.826 150.845 493.25 158.112 508.73 166.852C511.363 168.326 513.68 169.485 515.049 170.222C516.734 163.272 518.419 156.321 520.104 149.476C517.892 147.897 514.628 145.58 510.521 142.737C495.672 132.417 485.563 125.466 472.399 118.621C468.608 116.621 463.132 113.988 456.182 111.039C457.656 105.353 459.552 94.9273 455.866 83.2382C454.497 78.8153 452.286 72.0756 446.073 66.5997C442.176 63.2298 438.28 61.6502 435.963 60.9131C409.531 51.4354 381.414 51.0142 381.414 51.0142C366.039 50.8036 345.399 50.6983 320.968 57.7538C305.909 62.0714 297.063 67.0209 290.112 73.9712Z" fill="white"/>
<path d="M278.845 157.796C286.216 117.568 341.818 107.143 373.937 121.675C382.783 125.677 391.102 130.732 399.316 135.786C406.477 140.209 413.849 144.738 422.063 146.738C434.173 149.687 449.232 145.896 453.549 133.048C454.181 131.153 451.127 130.31 450.496 132.206C447.547 141.052 437.859 145.053 429.118 144.738C419.325 144.316 410.584 138.946 402.475 134.102C387.206 124.834 371.41 114.514 353.086 112.724C322.337 109.776 282.214 122.728 275.896 157.059C275.369 158.849 278.423 159.797 278.845 157.796Z" fill="#161616"/>
<path d="M275.686 155.058C274.106 154.742 272.526 154.426 270.841 154.11C270.525 153.268 270.104 152.425 269.788 151.583C269.367 150.53 269.156 149.371 268.946 148.213C268.525 145.791 268.419 143.263 268.314 140.736C268.209 135.892 268.419 130.942 268.841 126.098C269.578 115.673 271.473 105.247 276.001 95.7697C284.321 78.1834 301.17 66.389 319.177 60.0706C339.081 53.1203 360.774 51.646 381.73 52.1725C401.844 52.6991 424.485 54.4893 441.966 65.3359C453.55 72.4968 454.919 86.1868 455.234 98.8236C455.55 111.039 453.655 123.044 449.758 134.523C449.127 136.418 452.18 137.261 452.812 135.365C456.814 123.571 458.815 111.25 458.394 98.8236C458.078 88.7141 457.446 75.4454 450.074 67.758C442.598 59.86 430.487 55.9636 420.167 53.5415C407.951 50.6982 395.209 49.5398 382.678 49.1186C338.343 47.6443 280.319 57.8591 268.314 108.407C265.365 120.517 263.996 134.523 265.576 146.949C266.103 150.845 267.156 156.006 270.525 158.533C273.263 160.534 277.055 159.902 278.424 156.743C279.266 154.847 276.528 153.268 275.686 155.058Z" fill="#161616"/>
<path d="M271.368 152.425C278.634 125.572 302.223 105.247 329.287 100.403C344.135 97.7706 359.615 99.5608 373.621 105.037C388.154 110.618 398.684 120.306 410.057 130.626C420.272 139.999 434.067 148.107 447.968 141.684C449.758 140.841 448.179 138.103 446.388 138.946C428.907 147.054 414.27 129.889 402.897 119.464C392.576 110.092 380.15 103.141 366.671 99.3502C340.344 91.9787 312.016 97.4547 291.271 115.462C280.319 125.045 272.21 137.577 268.419 151.583C267.787 153.583 270.841 154.426 271.368 152.425Z" fill="#161616"/>
<path d="M452.496 130.521C473.663 143.369 494.303 157.059 514.522 171.275C516.207 172.433 517.787 169.695 516.102 168.537C495.883 154.215 475.243 140.631 454.076 127.783C452.391 126.73 450.811 129.468 452.496 130.521Z" fill="#161616"/>
<path d="M456.393 110.934C477.876 122.939 498.726 136.102 518.735 150.424C520.42 151.583 521.999 148.845 520.314 147.686C500.201 133.364 479.455 120.201 457.972 108.196C456.182 107.143 454.603 109.881 456.393 110.934Z" fill="#161616"/>
<path d="M518.103 148.423C515.891 155.163 514.417 161.903 513.574 168.958C513.364 170.959 516.523 170.959 516.734 168.958C517.471 162.219 518.945 155.69 521.157 149.266C521.788 147.37 518.734 146.528 518.103 148.423Z" fill="#161616"/>
<path d="M326.97 100.93C344.03 84.6071 361.195 68.4951 378.571 52.3831C380.045 51.0141 377.833 48.8026 376.359 50.1716C359.089 66.1783 341.818 82.3956 324.759 98.7183C323.284 100.087 325.496 102.299 326.97 100.93Z" fill="#161616"/>
<path d="M369.725 102.299C385.1 87.0292 400.474 71.7597 415.849 56.3848C417.324 54.9105 415.007 52.699 413.638 54.1733C398.263 69.4429 382.888 84.7124 367.513 100.087C366.039 101.562 368.25 103.773 369.725 102.299Z" fill="#161616"/>
<path opacity="0.15" d="M301.17 123.992C300.643 119.78 300.117 115.673 299.59 111.46C304.54 108.091 312.754 103.246 323.6 100.508C346.873 94.5059 366.46 101.877 375.411 105.247C382.151 107.775 390.154 110.723 398.474 117.779C404.897 123.255 404.792 125.572 412.585 131.89C419.746 137.787 426.696 143.263 435.647 142.842C441.018 142.631 445.23 140.315 447.652 138.63C449.969 135.365 452.18 131.995 454.497 128.731C456.919 129.047 472.084 131.363 479.034 143.895C480.087 145.685 479.771 146.422 482.193 153.267C486.511 165.588 487.669 165.904 488.511 170.011C488.722 170.959 490.934 184.333 481.666 193.074C474.506 199.919 464.923 199.497 462.816 199.392C459.763 207.817 459.236 215.083 459.131 219.822C459.131 227.088 459.025 235.934 464.923 243.832C467.029 246.675 471.768 253.099 480.087 253.731C490.091 254.468 496.725 246.148 497.357 245.411C483.457 248.044 469.451 250.677 455.55 253.204C455.445 264.367 457.13 273.002 458.71 278.794C462.501 293.115 467.977 299.329 467.555 311.228C467.345 318.6 464.817 324.602 462.816 328.499C456.393 310.491 449.864 292.589 443.44 274.581C436.49 279.952 429.539 285.428 422.484 290.799C425.222 284.901 428.065 278.899 430.803 273.002C434.384 257.416 435.121 243.937 435.015 233.827C434.805 218.979 430.803 204.236 423.01 174.75C418.272 157.058 415.007 147.581 406.267 139.683C403.213 136.945 399.737 134.944 392.682 130.837C377.202 121.886 369.514 117.358 360.247 115.146C340.976 110.618 323.916 115.778 315.808 118.305C309.594 120.096 304.645 122.202 301.17 123.992Z" fill="#606060"/>
<path opacity="0.13" d="M337.817 171.486C335.5 181.595 333.499 192.758 332.025 204.973C331.288 211.713 330.761 218.137 330.445 224.35C334.973 225.403 339.502 226.456 344.03 227.509C341.924 208.87 339.923 190.23 337.817 171.486Z" fill="#606060"/>
<path opacity="0.09" d="M449.864 186.018C448.495 193.495 446.704 201.288 444.388 209.396C433.646 246.57 415.744 275.319 399.422 296.064C401.528 295.116 436.068 278.688 447.126 253.836C450.074 247.307 452.496 241.831 452.602 234.144C452.812 224.245 449.127 220.454 451.654 213.082C454.181 206.026 459.131 205.079 459.447 199.813C459.763 194.232 454.497 189.388 449.864 186.018Z" fill="#606060"/>
<path opacity="0.1" d="M309.068 113.04C308.436 117.568 313.596 121.675 316.229 123.781C330.972 135.681 344.346 125.15 370.357 130.416C392.366 134.944 396.578 145.369 419.325 145.685C427.328 145.791 433.857 144.632 438.175 143.685C435.121 143.053 430.487 141.684 425.432 139.051C416.692 134.523 411.532 128.836 409.636 126.835C399.421 115.989 381.098 104.931 367.829 100.824C342.029 92.7158 310.542 102.825 309.068 113.04Z" fill="#606060"/>
</svg>
